{
  "accessors": [
    {
      "bufferView": 2,
      "componentType": 5126,
      "count": 4,
      "max": [
        2144.880615234375,
        1494.6512451171875,
        0.0
      ],
      "min": [
        -2144.880615234375,
        -1494.6512451171875,
        0.0
      ],
      "type": "VEC3"
    },
    {
      "bufferView": 2,
      "byteOffset": 48,
      "componentType": 5126,
      "count": 4,
      "max": [
        0.0,
        0.0,
        1.0
      ],
      "min": [
        0.0,
        0.0,
        1.0
      ],
      "type": "VEC3"
    },
    {
      "bufferView": 1,
      "componentType": 5126,
      "count": 4,
      "max": [
        0.7996438145637512,
        0.9299999475479126
      ],
      "min": [
        0.20035625994205475,
        0.06999997049570084
      ],
      "type": "VEC2"
    },
    {
      "bufferView": 1,
      "byteOffset": 32,
      "componentType": 5126,
      "count": 4,
      "max": [
        0.7996438145637512,
        0.9299999475479126
      ],
      "min": [
        0.20035625994205475,
        0.06999997049570084
      ],
      "type": "VEC2"
    },
    {
      "bufferView": 1,
      "byteOffset": 64,
      "componentType": 5126,
      "count": 4,
      "max": [
        909.2903442382813,
        655.9243774414063
      ],
      "min": [
        -909.2903442382813,
        -655.9243774414063
      ],
      "type": "VEC2"
    },
    {
      "bufferView": 0,
      "componentType": 5125,
      "count": 6,
      "type": "SCALAR"
    },
    {
      "bufferView": 2,
      "byteOffset": 96,
      "componentType": 5126,
      "count": 7258,
      "max": [
        593.9780883789063,
        374.0323486328125,
        1671.5706787109375
      ],
      "min": [
        -817.9891357421875,
        -467.86822509765625,
        -73.7630615234375
      ],
      "type": "VEC3"
    },
    {
      "bufferView": 2,
      "byteOffset": 87192,
      "componentType": 5126,
      "count": 7258,
      "max": [
        1.0,
        1.0,
        0.9999861121177673
      ],
      "min": [
        -1.0,
        -1.0,
        -1.0
      ],
      "type": "VEC3"
    },
    {
      "bufferView": 1,
      "byteOffset": 96,
      "componentType": 5126,
      "count": 7258,
      "max": [
        5.386263847351074,
        4.351454257965088
      ],
      "min": [
        -1.881262183189392,
        -2.5388224124908447
      ],
      "type": "VEC2"
    },
    {
      "bufferView": 1,
      "byteOffset": 58160,
      "componentType": 5126,
      "count": 7258,
      "max": [
        0.9798842668533325,
        0.9805699586868286
      ],
      "min": [
        0.019417794421315193,
        0.019430013373494148
      ],
      "type": "VEC2"
    },
    {
      "bufferView": 0,
      "byteOffset": 24,
      "componentType": 5125,
      "count": 15087,
      "type": "SCALAR"
    },
    {
      "bufferView": 2,
      "byteOffset": 174288,
      "componentType": 5126,
      "count": 114,
      "max": [
        515.732421875,
        233.36181640625,
        818.8099365234375
      ],
      "min": [
        -741.6904907226563,
        -418.7951354980469,
        64.34477233886719
      ],
      "type": "VEC3"
    },
    {
      "bufferView": 2,
      "byteOffset": 175656,
      "componentType": 5126,
      "count": 114,
      "max": [
        1.0,
        1.0,
        0.04915666952729225
      ],
      "min": [
        -1.0,
        -1.0,
        -0.0663352832198143
      ],
      "type": "VEC3"
    },
    {
      "bufferView": 1,
      "byteOffset": 116224,
      "componentType": 5126,
      "count": 114,
      "max": [
        2.3060567378997803,
        0.9924998879432678
      ],
      "min": [
        -1.1875877380371094,
        -0.011818294413387775
      ],
      "type": "VEC2"
    },
    {
      "bufferView": 1,
      "byteOffset": 117136,
      "componentType": 5126,
      "count": 114,
      "max": [
        0.9771034717559814,
        0.9462046027183533
      ],
      "min": [
        0.0020000000949949026,
        0.0020000000949949026
      ],
      "type": "VEC2"
    },
    {
      "bufferView": 0,
      "byteOffset": 60372,
      "componentType": 5125,
      "count": 210,
      "type": "SCALAR"
    },
    {
      "bufferView": 2,
      "byteOffset": 177024,
      "componentType": 5126,
      "count": 6667,
      "max": [
        620.9691162109375,
        496.01318359375,
        1678.18701171875
      ],
      "min": [
        -828.0578002929688,
        -595.7334594726563,
        -6.126926422119141
      ],
      "type": "VEC3"
    },
    {
      "bufferView": 2,
      "byteOffset": 257028,
      "componentType": 5126,
      "count": 6667,
      "max": [
        1.0,
        1.0,
        1.0
      ],
      "min": [
        -1.0,
        -1.0,
        -1.0
      ],
      "type": "VEC3"
    },
    {
      "bufferView": 1,
      "byteOffset": 118048,
      "componentType": 5126,
      "count": 6667,
      "max": [
        0.9849890470504761,
        0.9818488955497742
      ],
      "min": [
        -0.5873629450798035,
        -0.8336697220802307
      ],
      "type": "VEC2"
    },
    {
      "bufferView": 1,
      "byteOffset": 171384,
      "componentType": 5126,
      "count": 6667,
      "max": [
        0.9849890470504761,
        0.9818488955497742
      ],
      "min": [
        -0.5873629450798035,
        -0.8336697220802307
      ],
      "type": "VEC2"
    },
    {
      "bufferView": 1,
      "byteOffset": 224720,
      "componentType": 5126,
      "count": 6667,
      "max": [
        0.9830600023269653,
        0.9830530285835266
      ],
      "min": [
        0.016939986497163773,
        0.016939867287874222
      ],
      "type": "VEC2"
    },
    {
      "bufferView": 0,
      "byteOffset": 61212,
      "componentType": 5125,
      "count": 12207,
      "type": "SCALAR"
    },
    {
      "bufferView": 2,
      "byteOffset": 337032,
      "componentType": 5126,
      "count": 1617,
      "max": [
        593.9780883789063,
        300.42437744140625,
        1669.6181640625
      ],
      "min": [
        -817.9891357421875,
        -471.4807434082031,
        203.72396850585938
      ],
      "type": "VEC3"
    },
    {
      "bufferView": 2,
      "byteOffset": 356436,
      "componentType": 5126,
      "count": 1617,
      "max": [
        1.0,
        0.9978050589561462,
        0.9533917307853699
      ],
      "min": [
        -1.0,
        -0.9994407892227173,
        -0.9132697582244873
      ],
      "type": "VEC3"
    },
    {
      "bufferView": 1,
      "byteOffset": 278056,
      "componentType": 5126,
      "count": 1617,
      "max": [
        1.6759157180786133,
        3.839134693145752
      ],
      "min": [
        -1.9630272388458252,
        -0.8336697220802307
      ],
      "type": "VEC2"
    },
    {
      "bufferView": 1,
      "byteOffset": 290992,
      "componentType": 5126,
      "count": 1617,
      "max": [
        0.9795606136322021,
        0.9783349633216858
      ],
      "min": [
        0.03188000246882439,
        0.031870197504758835
      ],
      "type": "VEC2"
    },
    {
      "bufferView": 0,
      "byteOffset": 110040,
      "componentType": 5125,
      "count": 3648,
      "type": "SCALAR"
    },
    {
      "bufferView": 2,
      "byteOffset": 375840,
      "componentType": 5126,
      "count": 216,
      "max": [
        482.3836364746094,
        208.07302856445313,
        928.12158203125
      ],
      "min": [
        -595.3557739257813,
        -436.2565612792969,
        -56.16756057739258
      ],
      "type": "VEC3"
    },
    {
      "bufferView": 2,
      "byteOffset": 378432,
      "componentType": 5126,
      "count": 216,
      "max": [
        1.0,
        1.0,
        0.22466735541820526
      ],
      "min": [
        -1.0,
        -1.0,
        -0.010501922108232975
      ],
      "type": "VEC3"
    },
    {
      "bufferView": 1,
      "byteOffset": 303928,
      "componentType": 5126,
      "count": 216,
      "max": [
        9.913222312927246,
        -0.27183103561401367
      ],
      "min": [
        -8.302913665771484,
        -3.383150339126587
      ],
      "type": "VEC2"
    },
    {
      "bufferView": 1,
      "byteOffset": 305656,
      "componentType": 5126,
      "count": 216,
      "max": [
        0.9848644137382507,
        0.9793177843093872
      ],
      "min": [
        0.010921023786067963,
        0.010895907878875732
      ],
      "type": "VEC2"
    },
    {
      "bufferView": 0,
      "byteOffset": 124632,
      "componentType": 5125,
      "count": 474,
      "type": "SCALAR"
    }
  ],
  "asset": {
    "extras": {
      "author": "Krystian Zem (https://sketchfab.com/Banketo)",
      "license": "CC-BY-4.0 (http://creativecommons.org/licenses/by/4.0/)",
      "source": "https://sketchfab.com/3d-models/medieval-watchtower-house-4099fd90094c400e987deb240078c38e",
      "title": "Medieval Watchtower House"
    },
    "generator": "Sketchfab-12.67.0",
    "version": "2.0"
  },
  "bufferViews": [
    {
      "buffer": 0,
      "byteLength": 126528,
      "name": "floatBufferViews",
      "target": 34963
    },
    {
      "buffer": 0,
      "byteLength": 307384,
      "byteOffset": 126528,
      "byteStride": 8,
      "name": "floatBufferViews",
      "target": 34962
    },
    {
      "buffer": 0,
      "byteLength": 381024,
      "byteOffset": 433912,
      "byteStride": 12,
      "name": "floatBufferViews",
      "target": 34962
    }
  ],
  "buffers": [
    {
      "byteLength": 814936,
      "uri": "scene.bin"
    }
  ],
  "images": [
    {
      "uri": "textures/Material_565_baseColor.png"
    },
    {
      "uri": "textures/Material_14_baseColor.png"
    },
    {
      "uri": "textures/Material_94_baseColor.png"
    },
    {
      "uri": "textures/Material_409_baseColor.png"
    },
    {
      "uri": "textures/Material_409_emissive.png"
    },
    {
      "uri": "textures/Material_243_baseColor.png"
    },
    {
      "uri": "textures/Material_15_baseColor.png"
    }
  ],
  "materials": [
    {
      "alphaCutoff": 0.4407393292682926,
      "alphaMode": "MASK",
      "doubleSided": true,
      "name": "Material_565",
      "pbrMetallicRoughness": {
        "baseColorTexture": {
          "index": 0
        },
        "metallicFactor": 0.0,
        "roughnessFactor": 0.8614710365853658
      }
    },
    {
      "doubleSided": true,
      "name": "Material_14",
      "pbrMetallicRoughness": {
        "baseColorTexture": {
          "index": 1
        },
        "metallicFactor": 0.0,
        "roughnessFactor": 0.8797637195121951
      }
    },
    {
      "doubleSided": true,
      "name": "Material_94",
      "pbrMetallicRoughness": {
        "baseColorTexture": {
          "index": 2
        },
        "metallicFactor": 0.0,
        "roughnessFactor": 0.8980564024390245
      }
    },
    {
      "alphaCutoff": 0.5383003048780488,
      "alphaMode": "MASK",
      "doubleSided": true,
      "emissiveFactor": [
        0.504954268292683,
        0.504954268292683,
        0.504954268292683
      ],
      "emissiveTexture": {
        "index": 4
      },
      "name": "Material_409",
      "pbrMetallicRoughness": {
        "baseColorTexture": {
          "index": 3
        },
        "metallicFactor": 0.0,
        "roughnessFactor": 0.8492759146341463
      }
    },
    {
      "doubleSided": true,
      "name": "Material_243",
      "pbrMetallicRoughness": {
        "baseColorTexture": {
          "index": 5
        },
        "metallicFactor": 0.0,
        "roughnessFactor": 0.6
      }
    },
    {
      "doubleSided": true,
      "name": "Material_15",
      "pbrMetallicRoughness": {
        "baseColorTexture": {
          "index": 6
        },
        "metallicFactor": 0.0
      }
    }
  ],
  "meshes": [
    {
      "name": "Ground Plane002_Material #565_0",
      "primitives": [
        {
          "attributes": {
            "NORMAL": 1,
            "POSITION": 0,
            "TEXCOORD_0": 2,
            "TEXCOORD_1": 3,
            "TEXCOORD_2": 4
          },
          "indices": 5,
          "material": 0,
          "mode": 4
        }
      ]
    },
    {
      "name": "Ground Plane002_Material #14_0",
      "primitives": [
        {
          "attributes": {
            "NORMAL": 7,
            "POSITION": 6,
            "TEXCOORD_0": 8,
            "TEXCOORD_1": 9
          },
          "indices": 10,
          "material": 1,
          "mode": 4
        }
      ]
    },
    {
      "name": "Ground Plane002_Material #94_0",
      "primitives": [
        {
          "attributes": {
            "NORMAL": 12,
            "POSITION": 11,
            "TEXCOORD_0": 13,
            "TEXCOORD_1": 14
          },
          "indices": 15,
          "material": 2,
          "mode": 4
        }
      ]
    },
    {
      "name": "Ground Plane002_Material #409_0",
      "primitives": [
        {
          "attributes": {
            "NORMAL": 17,
            "POSITION": 16,
            "TEXCOORD_0": 18,
            "TEXCOORD_1": 19,
            "TEXCOORD_2": 20
          },
          "indices": 21,
          "material": 3,
          "mode": 4
        }
      ]
    },
    {
      "name": "Ground Plane002_Material #243_0",
      "primitives": [
        {
          "attributes": {
            "NORMAL": 23,
            "POSITION": 22,
            "TEXCOORD_0": 24,
            "TEXCOORD_1": 25
          },
          "indices": 26,
          "material": 4,
          "mode": 4
        }
      ]
    },
    {
      "name": "Ground Plane002_Material #15_0",
      "primitives": [
        {
          "attributes": {
            "NORMAL": 28,
            "POSITION": 27,
            "TEXCOORD_0": 29,
            "TEXCOORD_1": 30
          },
          "indices": 31,
          "material": 5,
          "mode": 4
        }
      ]
    }
  ],
  "nodes": [
    {
      "children": [
        1
      ],
      "matrix": [
        1.0,
        0.0,
        0.0,
        0.0,
        0.0,
        2.220446049250313e-16,
        -1.0,
        0.0,
        0.0,
        1.0,
        2.220446049250313e-16,
        0.0,
        0.0,
        0.0,
        0.0,
        1.0
      ],
      "name": "Sketchfab_model"
    },
    {
      "children": [
        2
      ],
      "matrix": [
        1.0,
        0.0,
        0.0,
        0.0,
        0.0,
        0.0,
        1.0,
        0.0,
        0.0,
        -1.0,
        0.0,
        0.0,
        0.0,
        0.0,
        0.0,
        1.0
      ],
      "name": "A_Watchtower_Sketchfab_Export.FBX"
    },
    {
      "children": [
        3
      ],
      "name": "RootNode"
    },
    {
      "children": [
        4,
        5,
        6,
        7,
        8,
        9
      ],
      "matrix": [
        1.0,
        0.0,
        0.0,
        0.0,
        0.0,
        2.220446049250313e-16,
        -1.0,
        0.0,
        0.0,
        1.0,
        2.220446049250313e-16,
        0.0,
        0.0,
        -802.2120361328125,
        -4391.033203125,
        1.0
      ],
      "name": "Ground Plane002"
    },
    {
      "mesh": 0,
      "name": "Ground Plane002_Material #565_0"
    },
    {
      "mesh": 1,
      "name": "Ground Plane002_Material #14_0"
    },
    {
      "mesh": 2,
      "name": "Ground Plane002_Material #94_0"
    },
    {
      "mesh": 3,
      "name": "Ground Plane002_Material #409_0"
    },
    {
      "mesh": 4,
      "name": "Ground Plane002_Material #243_0"
    },
    {
      "mesh": 5,
      "name": "Ground Plane002_Material #15_0"
    }
  ],
  "samplers": [
    {
      "magFilter": 9729,
      "minFilter": 9987,
      "wrapS": 10497,
      "wrapT": 10497
    }
  ],
  "scene": 0,
  "scenes": [
    {
      "name": "Sketchfab_Scene",
      "nodes": [
        0
      ]
    }
  ],
  "textures": [
    {
      "sampler": 0,
      "source": 0
    },
    {
      "sampler": 0,
      "source": 1
    },
    {
      "sampler": 0,
      "source": 2
    },
    {
      "sampler": 0,
      "source": 3
    },
    {
      "sampler": 0,
      "source": 4
    },
    {
      "sampler": 0,
      "source": 5
    },
    {
      "sampler": 0,
      "source": 6
    }
  ]
}
